<mxfile host="app.diagrams.net" agent="Mozilla/5.0 (Windows NT 10.0; Win64; x64) AppleWebKit/537.36 (KHTML, like Gecko) Chrome/131.0.0.0 Safari/537.36 Edg/131.0.0.0" version="25.0.1">
  <diagram id="C5RBs43oDa-KdzZeNtuy" name="Page-1">
    <mxGraphModel dx="1042" dy="533" grid="1" gridSize="10" guides="1" tooltips="1" connect="1" arrows="1" fold="1" page="1" pageScale="1" pageWidth="827" pageHeight="1169" math="0" shadow="0">
      <root>
        <mxCell id="WIyWlLk6GJQsqaUBKTNV-0" />
        <mxCell id="WIyWlLk6GJQsqaUBKTNV-1" parent="WIyWlLk6GJQsqaUBKTNV-0" />
        <mxCell id="lEPquxGeCKUcFUrLxLYC-2" value="" style="edgeStyle=orthogonalEdgeStyle;rounded=0;orthogonalLoop=1;jettySize=auto;html=1;" edge="1" parent="WIyWlLk6GJQsqaUBKTNV-1" source="lEPquxGeCKUcFUrLxLYC-0" target="lEPquxGeCKUcFUrLxLYC-1">
          <mxGeometry relative="1" as="geometry" />
        </mxCell>
        <mxCell id="lEPquxGeCKUcFUrLxLYC-6" value="" style="edgeStyle=orthogonalEdgeStyle;rounded=0;orthogonalLoop=1;jettySize=auto;html=1;" edge="1" parent="WIyWlLk6GJQsqaUBKTNV-1" source="lEPquxGeCKUcFUrLxLYC-0" target="lEPquxGeCKUcFUrLxLYC-5">
          <mxGeometry relative="1" as="geometry" />
        </mxCell>
        <mxCell id="lEPquxGeCKUcFUrLxLYC-8" value="" style="edgeStyle=orthogonalEdgeStyle;rounded=0;orthogonalLoop=1;jettySize=auto;html=1;" edge="1" parent="WIyWlLk6GJQsqaUBKTNV-1" source="lEPquxGeCKUcFUrLxLYC-0" target="lEPquxGeCKUcFUrLxLYC-7">
          <mxGeometry relative="1" as="geometry" />
        </mxCell>
        <mxCell id="lEPquxGeCKUcFUrLxLYC-0" value="Registration" style="rounded=1;whiteSpace=wrap;html=1;" vertex="1" parent="WIyWlLk6GJQsqaUBKTNV-1">
          <mxGeometry x="360" y="120" width="180" height="60" as="geometry" />
        </mxCell>
        <mxCell id="lEPquxGeCKUcFUrLxLYC-4" value="" style="edgeStyle=orthogonalEdgeStyle;rounded=0;orthogonalLoop=1;jettySize=auto;html=1;" edge="1" parent="WIyWlLk6GJQsqaUBKTNV-1" source="lEPquxGeCKUcFUrLxLYC-1" target="lEPquxGeCKUcFUrLxLYC-3">
          <mxGeometry relative="1" as="geometry" />
        </mxCell>
        <mxCell id="lEPquxGeCKUcFUrLxLYC-13" value="" style="edgeStyle=orthogonalEdgeStyle;rounded=0;orthogonalLoop=1;jettySize=auto;html=1;" edge="1" parent="WIyWlLk6GJQsqaUBKTNV-1" source="lEPquxGeCKUcFUrLxLYC-1" target="lEPquxGeCKUcFUrLxLYC-12">
          <mxGeometry relative="1" as="geometry" />
        </mxCell>
        <mxCell id="lEPquxGeCKUcFUrLxLYC-15" value="" style="edgeStyle=orthogonalEdgeStyle;rounded=0;orthogonalLoop=1;jettySize=auto;html=1;" edge="1" parent="WIyWlLk6GJQsqaUBKTNV-1" source="lEPquxGeCKUcFUrLxLYC-1" target="lEPquxGeCKUcFUrLxLYC-14">
          <mxGeometry relative="1" as="geometry" />
        </mxCell>
        <mxCell id="lEPquxGeCKUcFUrLxLYC-1" value="Homepage" style="whiteSpace=wrap;html=1;rounded=1;" vertex="1" parent="WIyWlLk6GJQsqaUBKTNV-1">
          <mxGeometry x="365" y="280" width="170" height="60" as="geometry" />
        </mxCell>
        <mxCell id="lEPquxGeCKUcFUrLxLYC-3" value="Add Event" style="whiteSpace=wrap;html=1;rounded=1;" vertex="1" parent="WIyWlLk6GJQsqaUBKTNV-1">
          <mxGeometry x="160" y="540" width="170" height="60" as="geometry" />
        </mxCell>
        <mxCell id="lEPquxGeCKUcFUrLxLYC-16" style="edgeStyle=orthogonalEdgeStyle;rounded=0;orthogonalLoop=1;jettySize=auto;html=1;exitX=0;exitY=1;exitDx=0;exitDy=0;entryX=0.5;entryY=1;entryDx=0;entryDy=0;" edge="1" parent="WIyWlLk6GJQsqaUBKTNV-1" source="lEPquxGeCKUcFUrLxLYC-5" target="lEPquxGeCKUcFUrLxLYC-14">
          <mxGeometry relative="1" as="geometry" />
        </mxCell>
        <mxCell id="lEPquxGeCKUcFUrLxLYC-5" value="Database&lt;div&gt;(Stores Users Info)&lt;/div&gt;" style="whiteSpace=wrap;html=1;rounded=1;" vertex="1" parent="WIyWlLk6GJQsqaUBKTNV-1">
          <mxGeometry x="40" y="120" width="180" height="60" as="geometry" />
        </mxCell>
        <mxCell id="lEPquxGeCKUcFUrLxLYC-7" value="Invalid Login Information" style="whiteSpace=wrap;html=1;rounded=1;" vertex="1" parent="WIyWlLk6GJQsqaUBKTNV-1">
          <mxGeometry x="670" y="120" width="140" height="60" as="geometry" />
        </mxCell>
        <mxCell id="lEPquxGeCKUcFUrLxLYC-11" value="" style="endArrow=classic;html=1;rounded=0;entryX=0.5;entryY=1;entryDx=0;entryDy=0;" edge="1" parent="WIyWlLk6GJQsqaUBKTNV-1">
          <mxGeometry width="50" height="50" relative="1" as="geometry">
            <mxPoint x="130" y="560" as="sourcePoint" />
            <mxPoint x="95" y="180" as="targetPoint" />
            <Array as="points">
              <mxPoint x="160" y="560" />
              <mxPoint x="95" y="560" />
            </Array>
          </mxGeometry>
        </mxCell>
        <mxCell id="lEPquxGeCKUcFUrLxLYC-17" style="edgeStyle=orthogonalEdgeStyle;rounded=0;orthogonalLoop=1;jettySize=auto;html=1;exitX=0;exitY=0.5;exitDx=0;exitDy=0;entryX=1;entryY=0.5;entryDx=0;entryDy=0;" edge="1" parent="WIyWlLk6GJQsqaUBKTNV-1" source="lEPquxGeCKUcFUrLxLYC-12" target="lEPquxGeCKUcFUrLxLYC-3">
          <mxGeometry relative="1" as="geometry" />
        </mxCell>
        <mxCell id="lEPquxGeCKUcFUrLxLYC-12" value="Search Event" style="whiteSpace=wrap;html=1;rounded=1;" vertex="1" parent="WIyWlLk6GJQsqaUBKTNV-1">
          <mxGeometry x="390" y="540" width="170" height="60" as="geometry" />
        </mxCell>
        <mxCell id="lEPquxGeCKUcFUrLxLYC-14" value="Event List" style="whiteSpace=wrap;html=1;rounded=1;" vertex="1" parent="WIyWlLk6GJQsqaUBKTNV-1">
          <mxGeometry x="650" y="540" width="150" height="60" as="geometry" />
        </mxCell>
      </root>
    </mxGraphModel>
  </diagram>
</mxfile>
